<svg width="45" height="46" viewBox="0 0 45 46" fill="none" xmlns="http://www.w3.org/2000/svg">
<path id="Vector" fill-rule="evenodd" clip-rule="evenodd" d="M22.5 45.1699C34.9264 45.1699 45 35.0963 45 22.6699C45 10.2435 34.9264 0.169922 22.5 0.169922C10.0736 0.169922 0 10.2435 0 22.6699C0 35.0963 10.0736 45.1699 22.5 45.1699ZM32.3897 14.5449C32.5632 12.5739 30.4818 13.3854 30.4818 13.3854C28.9449 14.0216 27.36 14.6682 25.7579 15.3216C20.7904 17.3479 15.6583 19.4413 11.2865 21.5015C8.91599 22.3712 10.3036 23.2407 10.3036 23.2407L14.0617 24.4002C15.7962 24.9219 16.7213 24.3422 16.7213 24.3422L24.8157 18.8348C27.7065 16.8638 27.0128 18.487 26.319 19.1827L20.2481 24.9799C19.323 25.7915 19.7856 26.4872 20.1903 26.835C21.3373 27.847 24.159 29.6987 25.3908 30.5071C25.7114 30.7174 25.9243 30.8571 25.972 30.893C26.2611 31.125 27.8221 32.1684 28.8629 31.9365C29.9036 31.7047 30.0192 30.3713 30.0192 30.3713L31.4068 21.2697C31.615 19.6896 31.8537 18.1708 32.0444 16.9578C32.2245 15.8121 32.3617 14.9391 32.3897 14.5449Z" fill="black"/>
</svg>
