<svg width="45" height="46" viewBox="0 0 45 46" fill="none" xmlns="http://www.w3.org/2000/svg">
<path id="Vector" fill-rule="evenodd" clip-rule="evenodd" d="M22.5 45.1699C34.9264 45.1699 45 35.0963 45 22.6699C45 10.2435 34.9264 0.169922 22.5 0.169922C10.0736 0.169922 0 10.2435 0 22.6699C0 35.0963 10.0736 45.1699 22.5 45.1699ZM11.25 15.4699C11.4327 24.2394 15.8174 29.5096 23.5048 29.5096H23.9406V24.4924C26.7654 24.7735 28.9013 26.8394 29.7586 29.5096H33.75C32.6538 25.5183 29.7727 23.3119 27.9738 22.4687C29.7727 21.4287 32.3023 18.899 32.9067 15.4699H29.2807C28.4937 18.2525 26.1611 20.7822 23.9406 21.0211V15.4699H20.3146V25.1951C18.066 24.633 15.2272 21.9065 15.1007 15.4699H11.25Z" fill="black"/>
</svg>
